# xmcd CD database file
#
# Track frame offsets:
#	225
#	19530
#	32350
#	46360
#	61320
#	80292
#	93217
#	111775
#	127845
#	140070
#	163182
#	178397
#	192235
#	207550
#	223047
#	242045
#	255110
#	269032
#	289187
#	305630
#
# Disc length: 4308 seconds
#
# Revision: 0
# Processed by: cddbd v1.5.2PL0 Copyright (c) Steve Scherf et al.
# Submitted via: CDex 1.51
#
DISCID=2410d114
DTITLE=Steamboat Stompers - 1968 - 1988
DYEAR=1995
DGENRE=Jazz
TTITLE0=Shine
TTITLE1=That Da Da Strain
TTITLE2=How Long Blues
TTITLE3=Someboy Stole My Gal
TTITLE4=Sidewalk Blues
TTITLE5=Reindeer Rag
TTITLE6=Jazz Me Blues
TTITLE7=Beale Street Blues
TTITLE8=Wolverine Blues
TTITLE9=Toníku, vyprávìj!
TTITLE10=TheWang Wang Blues
TTITLE11=Baby Woñt You Please Come Home
TTITLE12=Sweet Georgia Brown
TTITLE13=South
TTITLE14=Big Noise From Winnetka
TTITLE15=See If I Care
TTITLE16=Kat a blazenThe Hangmann and The Fool)
TTITLE17=Svet naruby (The Upside-Down World)
TTITLE18=Alabama Jubilee
TTITLE19=Tiger Rag
EXTD=YEAR: 1995
EXTT0=
EXTT1=
EXTT2=
EXTT3=
EXTT4=
EXTT5=
EXTT6=
EXTT7=
EXTT8=
EXTT9=
EXTT10=
EXTT11=
EXTT12=
EXTT13=
EXTT14=
EXTT15=
EXTT16=
EXTT17=
EXTT18=
EXTT19=
PLAYORDER=
